Coordinates
version=1
nRows=26
nColumns=22
inDegrees=yes

Units are S.I. units (second, meters, Newtons, ...)
If the header above contains a line with 'inDegrees', this indicates whether rotational values are in degrees (yes) or radians (no).

endheader
time	pelvis_tilt	pelvis_list	pelvis_rotation	pelvis_tx	pelvis_ty	pelvis_tz	hip_flexion_r	hip_adduction_r	hip_rotation_r	knee_angle_r	ankle_angle_r	subtalar_angle_r	hip_flexion_l	hip_adduction_l	hip_rotation_l	knee_angle_l	ankle_angle_l	subtalar_angle_l	lumbar_extension	lumbar_bending	lumbar_rotation
      3.94000000	     -0.74081164	     -2.77669275	     -5.59642128	     -0.62734974	      1.00110256	     -0.16948749	     21.93027433	      5.35103346	     -1.05310095	    -17.53168057	     -1.14211023	      0.66371833	     -7.12212481	      1.04950972	     -1.61703310	    -15.31791956	     17.88402816	     -3.01472307	    -14.33318897	      2.63490550	      0.03312102
      3.95000000	     -0.79928230	     -2.94077601	     -5.65633640	     -0.62134282	      1.00117801	     -0.16783698	     21.99610100	      5.60325356	     -1.12015650	    -18.22094774	     -0.93381627	      0.34292606	     -7.31269270	      0.81379935	     -1.70972024	    -15.59459145	     17.75263309	     -2.75306517	    -14.20455252	      2.88761500	      0.19380853
      3.96000000	     -0.85053509	     -3.10804810	     -5.74060977	     -0.61527798	      1.00136222	     -0.16610831	     22.01456184	      5.86773287	     -1.14609680	    -18.85589727	     -0.62622890	      0.14211107	     -7.47887960	      0.57510077	     -1.80821633	    -15.94177626	     17.58166031	     -2.50080424	    -14.08469490	      3.13719020	      0.38036293
      3.97000000	     -0.90534323	     -3.27142666	     -5.85075638	     -0.60911632	      1.00163003	     -0.16428543	     21.99067593	      6.13615560	     -1.15839064	    -19.42316946	     -0.29056384	      0.01085324	     -7.62671851	      0.33876446	     -1.90940795	    -16.32667068	     17.34296313	     -2.14355418	    -13.95070493	      3.37436343	      0.57705927
      3.98000000	     -0.94390432	     -3.41907706	     -5.97286863	     -0.60291751	      1.00197553	     -0.16242213	     21.89832666	      6.38706193	     -1.15618369	    -19.90637871	      0.10591199	     -0.01784516	     -7.73731457	      0.11931762	     -1.99704892	    -16.81639069	     17.08420054	     -1.84706723	    -13.83486120	      3.58948227	      0.77930003
      3.99000000	     -0.98356427	     -3.55311369	     -6.10800202	     -0.59666004	      1.00237433	     -0.16048386	     21.75409913	      6.62739212	     -1.15455322	    -20.30110792	      0.49153099	      0.00876242	     -7.80573553	     -0.08958498	     -2.06500943	    -17.38298832	     16.76749716	     -1.44071955	    -13.70893778	      3.78277891	      0.98204370
      4.00000000	     -1.02590436	     -3.67179620	     -6.23861436	     -0.59037951	      1.00281097	     -0.15852481	     21.56202840	      6.85002723	     -1.15224420	    -20.60689215	      0.85375152	      0.04446581	     -7.81030693	     -0.28613750	     -2.08755358	    -18.05562738	     16.40439068	     -0.99039013	    -13.57479109	      3.95886493	      1.17231042
      4.01000000	     -1.07929283	     -3.77842903	     -6.35959958	     -0.58410664	      1.00326106	     -0.15653829	     21.33246908	      7.06305003	     -1.13772156	    -20.82404984	      1.18448788	      0.04215263	     -7.72561614	     -0.47716063	     -2.06605554	    -18.86007791	     16.00304132	     -0.50383898	    -13.42499695	      4.11939104	      1.34819369
      4.02000000	     -1.14787825	     -3.87127355	     -6.45925154	     -0.57787652	      1.00371266	     -0.15455380	     21.07526476	      7.26470699	     -1.09193807	    -20.95959874	      1.47653986	     -0.02018923	     -7.53224832	     -0.66258399	     -1.99274172	    -19.81584350	     15.55620862	      0.02726167	    -13.25781238	      4.26748370	      1.49121197
      4.03000000	     -1.23402106	     -3.96717807	     -6.53554395	     -0.57169798	      1.00414725	     -0.15256770	     20.79934596	      7.47078496	     -1.04667269	    -21.02769363	      1.75080790	     -0.13786849	     -7.22250284	     -0.86189007	     -1.87990902	    -20.93336487	     15.07669835	      0.55244014	    -13.07242445	      4.41790671	      1.61775735
      4.04000000	     -1.33703109	     -4.05184009	     -6.58017170	     -0.56560730	      1.00455759	     -0.15062756	     20.51568607	      7.66471068	     -0.98027037	    -21.04311632	      2.00577467	     -0.30051234	     -6.78591394	     -1.05886444	     -1.72644156	    -22.22092005	     14.54512770	      1.13855621	    -12.87132572	      4.56263420	      1.70182809
      4.05000000	     -1.44736750	     -4.15188294	     -6.59597698	     -0.55959338	      1.00495561	     -0.14875715	     20.22403067	      7.86713683	     -0.93586391	    -21.02787718	      2.25878959	     -0.48027814	     -6.24324089	     -1.27814094	     -1.54272677	    -23.66497077	     13.94364299	      1.72911233	    -12.66840996	      4.73129415	      1.77366983
      4.06000000	     -1.56687168	     -4.23069408	     -6.58268993	     -0.55364048	      1.00533842	     -0.14696345	     19.91104884	      8.04035121	     -0.89704730	    -20.94418373	      2.52751332	     -0.67858290	     -5.58990836	     -1.48502048	     -1.36021293	    -25.25631728	     13.26580697	      2.40430003	    -12.45113086	      4.87746581	      1.83482679
      4.07000000	     -1.66927340	     -4.33108733	     -6.54238359	     -0.54775771	      1.00573667	     -0.14526838	     19.57107827	      8.22407702	     -0.88250681	    -20.84140940	      2.79401019	     -0.86532932	     -4.86761743	     -1.72013751	     -1.17818470	    -26.97888178	     12.50458701	      3.08356199	    -12.26310547	      5.05305207	      1.89203381
      4.08000000	     -1.75256763	     -4.43129677	     -6.48937692	     -0.54193812	      1.00614704	     -0.14366940	     19.20375658	      8.39798424	     -0.87553562	    -20.71830959	      3.07486285	     -1.05034948	     -4.08736172	     -1.95910510	     -1.01264478	    -28.80939741	     11.65540089	      3.82434540	    -12.10200529	      5.22999128	      1.96497115
      4.09000000	     -1.80619127	     -4.54023908	     -6.42404915	     -0.53618266	      1.00657983	     -0.14215641	     18.80068898	      8.57116668	     -0.87962743	    -20.58033239	      3.35435843	     -1.22447856	     -3.26944485	     -2.21455141	     -0.87237570	    -30.72824387	     10.74093391	      4.59324327	    -11.98102306	      5.41428296	      2.05341031
      4.10000000	     -1.83062486	     -4.63929384	     -6.36505264	     -0.53048801	      1.00702416	     -0.14072155	     18.37102630	      8.72820941	     -0.88101879	    -20.44331292	      3.65651136	     -1.39713862	     -2.42827911	     -2.46241084	     -0.76209805	    -32.70243182	      9.77866042	      5.43099784	    -11.89780122	      5.58244705	      2.19308585
      4.11000000	     -1.82716613	     -4.73799063	     -6.30082162	     -0.52487518	      1.00746802	     -0.13935339	     17.91459710	      8.87663136	     -0.89303711	    -20.29929685	      3.94098088	     -1.55860717	     -1.55874263	     -2.72610973	     -0.69914914	    -34.73286271	      8.83765788	      6.29241658	    -11.85391714	      5.74442103	      2.34668600
      4.12000000	     -1.80632280	     -4.83584781	     -6.23405388	     -0.51935297	      1.00788456	     -0.13801929	     17.44680296	      9.02041016	     -0.91348251	    -20.15589964	      4.22396098	     -1.71522242	     -0.65732587	     -3.01185565	     -0.68590509	    -36.79999881	      7.97567132	      7.17288377	    -11.83682939	      5.89501092	      2.51733531
      4.13000000	     -1.76631814	     -4.92909922	     -6.17174788	     -0.51392357	      1.00827687	     -0.13671551	     16.97275322	      9.15589956	     -0.94430902	    -20.02716860	      4.51560135	     -1.87253681	      0.26247668	     -3.31628080	     -0.72111512	    -38.87376341	      7.20771047	      8.08280048	    -11.84826176	      6.03072059	      2.73719829
      4.14000000	     -1.71059140	     -5.03177372	     -6.10320884	     -0.50859949	      1.00864115	     -0.13540350	     16.48983181	      9.30016406	     -0.99282023	    -19.89907977	      4.78516992	     -2.02458830	      1.20399550	     -3.67035352	     -0.82057799	    -40.94348594	      6.59906229	      8.94302125	    -11.88585688	      6.15981931	      2.97333331
      4.15000000	     -1.63970780	     -5.14424226	     -6.02492164	     -0.50336555	      1.00898057	     -0.13409655	     15.99527101	      9.45301064	     -1.05763466	    -19.76698442	      5.04729383	     -2.17470797	      2.15883297	     -4.07911341	     -0.98645072	    -42.97817927	      6.15561810	      9.70624655	    -11.94692649	      6.28992579	      3.22968340
      4.16000000	     -1.55182241	     -5.28529848	     -5.93326000	     -0.49822611	      1.00931603	     -0.13273527	     15.47828763	      9.64021956	     -1.12991374	    -19.61644812	      5.28469083	     -2.31953730	      3.11630410	     -4.56790696	     -1.19927810	    -44.94952321	      5.89062794	     10.30158918	    -12.03285506	      6.42862585	      3.50307359
      4.17000000	     -1.43981327	     -5.44174346	     -5.82862766	     -0.49315538	      1.00967203	     -0.13134449	     14.93024833	      9.84615493	     -1.20368557	    -19.44784753	      5.50707133	     -2.46014135	      4.05903622	     -5.12317420	     -1.46729826	    -46.82116819	      5.79550060	     10.69307833	    -12.14823563	      6.56812751	      3.77094975
      4.18000000	     -1.28257250	     -5.62459283	     -5.70563958	     -0.48812124	      1.01010459	     -0.12992431	     14.31074262	     10.08219263	     -1.26052961	    -19.23337443	      5.72553623	     -2.55453519	      4.94750361	     -5.74317554	     -1.75130709	    -48.55262240	      5.87577039	     10.78674573	    -12.31294624	      6.71917611	      4.05291251
      4.19000000	     -1.12417191	     -5.79973913	     -5.57639237	     -0.48314486	      1.01055154	     -0.12846920	     13.69141069	     10.31623175	     -1.31404284	    -19.01035974	      5.93247710	     -2.66841397	      5.83169780	     -6.39053658	     -2.05044208	    -50.12847536	      6.09015998	     10.79615174	    -12.47436455	      6.84832810	      4.33032059
